<mxfile host="app.diagrams.net" modified="2024-07-17T07:02:29.739Z" agent="Mozilla/5.0 (Windows NT 10.0; Win64; x64) AppleWebKit/537.36 (KHTML, like Gecko) Chrome/126.0.0.0 Safari/537.36" version="24.6.5" etag="kwtSX1Ke1lLo7NT-S3Xo" type="github">
  <diagram name="第 1 页" id="3GSGj_KKg01hGDY_VxlJ">
    <mxGraphModel>
      <root>
        <mxCell id="0" />
        <mxCell id="1" parent="0" />
      </root>
    </mxGraphModel>
  </diagram>
</mxfile>
